<svg xmlns="http://www.w3.org/2000/svg"  viewBox="0 0 48 48" width="48px" height="48px"><path fill="#CFD8DC" d="M14 12A4 4 0 1 0 14 20 4 4 0 1 0 14 12zM34 12A4 4 0 1 0 34 20 4 4 0 1 0 34 12zM39 22A4 4 0 1 0 39 30 4 4 0 1 0 39 22zM9 22A4 4 0 1 0 9 30 4 4 0 1 0 9 22z"/><path fill="#CFD8DC" d="M37 17A4 4 0 1 0 37 25 4 4 0 1 0 37 17zM36 28A4 4 0 1 0 36 36 4 4 0 1 0 36 28zM24 5A4 4 0 1 0 24 13 4 4 0 1 0 24 5z"/><path fill="#CFD8DC" d="M30 7A4 4 0 1 0 30 15 4 4 0 1 0 30 7zM18 7A4 4 0 1 0 18 15 4 4 0 1 0 18 7zM11 18A4 4 0 1 0 11 26 4 4 0 1 0 11 18zM12 28A4 4 0 1 0 12 36 4 4 0 1 0 12 28z"/><path fill="#CFD8DC" d="M17 33A4 4 0 1 0 17 41 4 4 0 1 0 17 33zM31 33A4 4 0 1 0 31 41 4 4 0 1 0 31 33z"/><path fill="#CFD8DC" d="M24 35A4 4 0 1 0 24 43 4 4 0 1 0 24 35zM24 8A8 8 0 1 0 24 24 8 8 0 1 0 24 8z"/><g><path fill="#B0BEC5" d="M15 21A4 4 0 1 0 15 29 4 4 0 1 0 15 21zM33 21A4 4 0 1 0 33 29 4 4 0 1 0 33 21z"/><path fill="#B0BEC5" d="M30 27A4 4 0 1 0 30 35 4 4 0 1 0 30 27zM18 27A4 4 0 1 0 18 35 4 4 0 1 0 18 27z"/><path fill="#B0BEC5" d="M24 31A4 4 0 1 0 24 39 4 4 0 1 0 24 31zM16 18A2 2 0 1 0 16 22 2 2 0 1 0 16 18zM32 18A2 2 0 1 0 32 22 2 2 0 1 0 32 18z"/></g><path fill="#8D6E63" d="M16.509,17C16.186,17.682,16,18.5,16,19.5c0,3.59,3.582,14.5,8,14.5s8-10.91,8-14.5c0-1-0.186-1.818-0.509-2.5H16.509z"/><g><path fill="#FFC107" d="M19.5 17A2.5 2.5 0 1 0 19.5 22 2.5 2.5 0 1 0 19.5 17zM28.5 17A2.5 2.5 0 1 0 28.5 22 2.5 2.5 0 1 0 28.5 17z"/></g><g><path d="M28.5 17A1.5 1.5 0 1 0 28.5 20 1.5 1.5 0 1 0 28.5 17zM19.5 17A1.5 1.5 0 1 0 19.5 20 1.5 1.5 0 1 0 19.5 17z"/></g><g><path fill="#5D4037" d="M19.196 16c0 0-11-1-12 0s2 4 5 4 3-2 5-2M29 16c0 0 11-1 12 0s-2 4-5 4-3-2-5-2"/><path fill="#5D4037" d="M30.563,15.844c-1.17,0-2.132-0.865-2.299-1.989c-0.022-0.01-0.045-0.021-0.067-0.031c-0.33,0.794-1.111,1.353-2.025,1.353c-1.205,0-2.182-0.974-2.191-2.177c-0.014,0-0.028,0.001-0.043,0.001c-0.051,1.191-1.026,2.144-2.23,2.144c-0.889,0-1.65-0.522-2.012-1.273c-0.003,0.001-0.007,0.003-0.01,0.005c-0.159,1.11-1.104,1.966-2.259,1.966c-0.084,0-0.165-0.016-0.247-0.025c-0.482,0.629-0.833,1.357-1.021,2.181h15.684c-0.188-0.825-0.539-1.553-1.021-2.182C30.734,15.827,30.651,15.844,30.563,15.844z"/></g><g><path fill="#3E2723" d="M24 31c0 0-1.447 0-2 0s-1-.447-1-1 .447-1 1-1S24 31 24 31zM24 31c0 0 1.447 0 2 0s1-.447 1-1-.447-1-1-1S24 31 24 31z"/></g></svg>