<?xml version="1.0" encoding="utf-8"?>
<!-- Generator: Adobe Illustrator 22.1.0, SVG Export Plug-In . SVG Version: 6.00 Build 0)  -->
<svg version="1.1" id="Layer_1" xmlns="http://www.w3.org/2000/svg" xmlns:xlink="http://www.w3.org/1999/xlink" x="0px" y="0px"
	 viewBox="0 0 800 500" style="enable-background:new 0 0 800 500;" xml:space="preserve">
<g id="XMLID_170_">
	<path fill="#000000" id="XMLID_4585_" d="M496.8,157c2.8,0.7,4.2-1.1,6.3-1.8c6.7,9.5,10.6,20,12.3,31.3h0.7c8.8-12.3,5.3-29.9,15.1-41.9
		c3.9,0,6,3.2,8.1,6c3.2-2.1,3.5-7,2.8-10.6c-1.4-2.8-4.6-7-8.1-7c-14.1,7.7-11.3,25-16.2,37.6l-1.1-1.1
		c-1.1-11.6-5.6-23.2-15.8-30.3c-6-3.5-7,3.5-9.8,6.3C487,150.7,494,154.2,496.8,157z"/>
	<path fill="#000000" id="XMLID_4660_" d="M323.1,197.1c6.7-4.2,7.7-13.7,8.8-19.3l-6,8.1c-2.5,1.1-5.3,0.7-7-1.8c-4.9-14.4,3.5-27.4,6.3-40.8
		c-9.1,14.1-14.1,30.6-11.6,48.2C315,195.7,318.5,198.5,323.1,197.1z"/>
	<path fill="#000000" id="XMLID_4662_" d="M223.5,188.3c1.4,2.1,3.9,2.5,5.3,4.6c3.2,2.8,4.6-0.7,8.1-0.7c5.6,9.5,10.6,19.3,11.6,31h1.1
		c8.1-12.3,4.9-29.2,14.1-41.2c3.9-1.8,7,3.2,9.1,5.3c2.5-2.8,3.9-6.7,2.5-10.6c-1.8-3.2-4.9-7.4-9.1-6.3
		c-12.3,8.4-10.6,25-15.1,37.6c-1.1-3.9-2.5-7.7-2.8-12.3c-3.9-7.7-7.7-20-18.6-20.4c-15.1,30.6-48.9,40.5-73.9,59.4
		C181.7,227.7,210.2,215.4,223.5,188.3z"/>
	<path fill="#000000" id="XMLID_4670_" d="M435.3,189c-8.8-7-17.6-14.8-27.8-17.9c-3.9,8.4-9.5,16.5-12.3,25.7c9.1,6.3,18.3,13,27.8,18.6
		C428.2,206.9,434.2,198.8,435.3,189z"/>
	<path fill="#000000" id="XMLID_4676_" d="M687.8,306.5c-15.1-17.9-39.4-16.5-55.9-32.7c-0.7-2.5-2.5-4.2-5.3-5.3c-3.2-5.3-1.8-13-1.1-19.3
		c1.8-15.1,13-31,27.8-36.2c9.1-2.8,19-0.4,26.4,5.3c3.5-9.1,6-19.7,3.9-30.3c-6.7-14.8-27.8-9.5-37.6-2.5
		c-22.2,20.4-32.7,46.8-32.7,76.7c-11.6-1.1-22.9,3.2-32,9.8c-24.6,23.9-42.6,53.1-35.5,89c1.8,6-6.7,4.6-9.8,7
		c-20,2.5-50.7,12.7-63.3-10.6c-16.2-36.9-14.1-80.9-33.8-116.4h-1.1c-7.4,9.8-7,23.2-7.7,36.2c6.7,18.3,10.6,37.6,14.4,57
		c1.4,10.6,6,25-3.9,33.1c-9.8,7.7-25,7-36.2,2.8c-8.4-4.2-10.2-13.4-9.8-22.2c0.4-4.9,4.2-10.2,1.1-15.1
		c-10.6,9.1-20.4,20.8-30.6,31.3c-16.5,11.6-35.9,16.9-57.7,13.4c-28.8-0.7-37.3-33.8-54.2-51c-5.6-4.9-13.7-3.5-19.7-1.1
		c-40.5,22.9-46.8,68.6-68.2,103.8c-6,8.4-14.1,16.5-25.7,14.4c-22.9-5.6-26-30.6-28.5-49.9c-2.1-22.5,1.1-45,1.8-66.1H112
		c-10.6,22.5-10.9,51-8.8,77.4c4.9,24.6,10.2,53.8,36.2,65.8c11.6,3.5,20.4-4.9,27.4-12.7c23.2-33.4,23.9-82,67.5-100.6
		c6.3-2.5,11.6,1.4,15.8,6c11.6,19.3,24.6,49.6,52.4,48.9c33.4,6,61.9-12.7,78.4-40.1c1.4,4.9,1.8,10.2,3.9,14.4
		c7,15.5,22.9,21.5,39,20.8c20-5.6,26.4-26.7,30.3-44.3c3.2,17.6,15.8,38.3,34.8,41.9c29.5,3.9,56.6-4.6,80.2-18.6
		c11.3,6.3,24.3,9.1,38.3,8.8c25.7-2.8,49.9-8.4,69.6-25.7C691.7,353.3,698.4,326.9,687.8,306.5z M572.1,354.7
		c-7.4-1.8-13-9.1-14.4-16.2c-3.5-16.2,12.3-27.8,23.9-36.6c6-2.5,11.3-7,17.9-7.4c4.6,2.8,5.6,8.1,7.4,12.7
		c1.4,7.4,3.2,17.9-2.8,23.9C595.3,343.1,583.4,348.7,572.1,354.7z M681.2,344.5c-7.7,8.8-20,8.8-30.3,13.4
		c-16.2,3.9-34.1,7-51.7,4.2c12-16.5,21.5-34.5,23.2-55.2c14.8,12.7,33.4,15.8,49.9,23.9C676.9,333.9,682.6,338.8,681.2,344.5z"/>
	<path fill="#000000" id="XMLID_4688_" d="M267.1,263.6c3.9,6,11.3,7.7,17.6,7.4v-8.8c-4.9-1.8-10.6-3.5-14.1-7.7c1.8-2.1,3.9-3.2,6-4.6
		c27.8-12,55.9-22.9,84.4-33.1c6.3-0.7,8.8-6.3,9.8-11.6l-9.1,3.5l-81.3,30.3C272.1,245.3,266.1,254.1,267.1,263.6z"/>
	<path fill="#000000" id="XMLID_4689_" d="M488,262.5c7-4.2,7.7-13.7,8.8-19.3l-6,8.1c-2.5,1.1-5.3,0.7-7-1.8c-4.9-14.4,3.5-27.4,6.3-40.8
		c-9.1,14.1-13.7,30.6-11.6,48.2C480.3,260.8,483.8,263.6,488,262.5z"/>
	<path fill="#000000" id="XMLID_4692_" d="M553.5,252c0.7,6,7.4,7.4,11.6,9.1c-18.3,16.9-40.1,25.7-59.8,39.7c24.6-6.7,48.2-17.9,65.8-39l14.4,1.1
		c3.9-4.6,7.4-10.2,6-16.2c-3.2-9.8-14.1-16.9-22.5-21.5c-2.5-1.1-6.3-1.1-8.8,0c-3.2,1.1-3.5,4.2-3.9,7
		C559.5,238.9,551.4,244.2,553.5,252z M574.9,241.4c5.3,1.4,9.8,7,11.3,12.3l-12.3-1.8L574.9,241.4z M564.4,238.9
		c2.8-0.4,3.9,2.8,4.6,4.6v7.4c-3.9-1.8-11.3,0-10.9-6.3C560.5,242.5,561.6,240.7,564.4,238.9z"/>
	<path fill="#000000" id="XMLID_4698_" d="M316,307.5c14.8-9.8,29.2-20.4,44.3-29.5c1.8-3.9,3.9-7.4,3.5-12.3c-8.8,3.5-16.2,11.3-26,12.3
		c-4.6-1.8-11.6-2.8-11.6-9.1c3.5-3.9,7.7-7.7,13.4-7c2.8,1.1,3.9,4.9,6,6c2.1-4.9,6-10.2,3.5-16.2c-1.8-2.8-4.9-3.9-8.8-3.5
		c-11.3,6-26,17.6-25,32c2.1,5.6,7.7,7,12.3,9.1l-9.1,8.1C316.4,300.5,315.7,304.7,316,307.5z"/>
	<path fill="#000000" id="XMLID_4700_" d="M179.2,282.6c7.7,6,16.2,10.6,23.9,16.9h3.5c3.9-8.1,9.8-15.5,11.6-24.6c-8.1-7.7-17.9-14.8-27.8-19.3
		c-3.9,6.3-6.7,13.4-10.6,19.7c-8.8-6-17.2-13.7-26.7-17.9l-1.8,1.1l-11.3,22.5v2.5l27.4,18.6C172.9,296.3,174.6,288.5,179.2,282.6z
		"/>
	<path fill="#000000" id="XMLID_4706_" d="M144.4,386.3c6.7-4.2,7.7-13.7,8.8-19.3l-6,8.1c-2.1,1.1-5.3,0.7-7-1.8c-4.9-14.4,3.5-27.4,6.3-40.8
		c-9.1,14.1-13.7,30.6-11.6,48.2C136.3,384.6,140.2,387.4,144.4,386.3z"/>
	<path fill="#000000" id="XMLID_4739_" d="M202.1,438.7c11.3-4.2,23.6-13.4,28.5-25c4.9,0.7,10.6,0.7,15.1,2.5c3.9-4.6,6.7-9.5,6.3-15.8
		c-4.2-12-17.2-21.1-29.2-23.2c-2.1,1.4-4.9,1.1-6,3.9c2.5,9.1-4.6,15.5-2.8,25c2.8,4.6,8.4,5.6,12.3,7.4
		c-8.8,14.1-32,15.5-30.3,35.5c0.7,2.1,3.2,2.8,4.6,3.9c18.6,2.1,35.5-3.9,49.6-15.1l-27.8,6.3c-7.4,1.1-16.2,1.1-22.9-1.8
		C198.6,440.5,201,440.1,202.1,438.7z M235.1,394.4c5.3,2.1,10.6,6.3,11.6,12.3l-12.7-1.8C236.2,402.2,234.8,397.9,235.1,394.4z
		 M219,400.8c-2.1-3.9,3.5-6.3,6-8.8c3.5-0.7,3.9,2.8,4.6,5.3v6.3C225.6,403.2,221.8,402.9,219,400.8z"/>
</g>

</svg>
